<?xml version="1.0" encoding="utf-8"?><svg viewBox="0 0 52 52" xmlns="http://www.w3.org/2000/svg" xmlns:xlink="http://www.w3.org/1999/xlink"><style>:root>svg{display:none}:root>svg:target{display:block}</style><svg viewBox="0 0 52 52" id="box" xmlns="http://www.w3.org/2000/svg"><path d="M36.716 30.906L30.1 27.473l11.69-9.23 6.673 3.037-11.746 9.626zm4.507 5.118L29.659 47.242V28.4l6.895 3.577c.173.09.38.068.532-.057l4.137-3.39v7.494zm-30.85-8.01l11.082 6.119a.487.487 0 00.542-.05l6.666-5.454v18.854l-18.29-9.65v-9.818zm-.421-9.471l18.275 9.127-6.591 5.392-18.03-9.955 6.346-4.564zm-6.35-4.245L15.767 6.16l5.976 2.852-11.88 8.342-6.26-3.056zm18.653 9.243l-11.352-5.67L22.255 9.9v13.64zm6.847 3.42l-5.85-2.922V9.72l17.497 8.046-11.647 9.194zm-.665-21.695l18.257 7.957-5.035 3.831-17.915-8.237 4.693-3.551zm21.479 15.82a.515.515 0 00-.294-.407l-6.91-3.144 5.28-4.017a.525.525 0 00-.101-.893L28.564 4.2a.483.483 0 00-.486.059L22.696 8.33l-6.762-3.228a.484.484 0 00-.478.035L2.308 13.934a.523.523 0 00-.227.469.517.517 0 00.285.433l6.547 3.196-6.546 4.709a.522.522 0 00-.214.455c.01.18.11.34.263.425l6.962 3.844V38.15a.52.52 0 00.272.46l19.357 10.214a.485.485 0 00.566-.083l12.488-12.115a.527.527 0 00.158-.377v-8.536l7.512-6.155a.528.528 0 00.185-.472z"/></svg><svg viewBox="0 0 50 52" id="boxes" xmlns="http://www.w3.org/2000/svg"><g clip-path="url(#ba)"><path d="M47.875 51H24.958a1.042 1.042 0 01-1.041-1.042V27.042c0-.575.466-1.042 1.041-1.042h22.917c.575 0 1.042.467 1.042 1.042v22.916c0 .575-.467 1.042-1.042 1.042zM26 48.917h20.833V28.083H26v20.834z"/><path d="M36.417 28.083H13.5a1.042 1.042 0 01-1.042-1.041V4.125c0-.575.467-1.042 1.042-1.042h22.917c.575 0 1.041.467 1.041 1.042v22.917a1.04 1.04 0 01-1.041 1.041zM14.542 26h20.833V5.167H14.542V26z"/><path d="M28.083 13.5h-6.25a1.042 1.042 0 01-1.041-1.042V4.125c0-.575.466-1.042 1.041-1.042h6.25c.575 0 1.042.467 1.042 1.042v8.333c0 .575-.467 1.042-1.042 1.042zm-5.208-2.083h4.167v-6.25h-4.167v6.25zm16.667 25h-6.25a1.042 1.042 0 01-1.042-1.042v-8.333c0-.575.467-1.042 1.042-1.042h6.25c.575 0 1.041.467 1.041 1.042v8.333c0 .575-.466 1.042-1.041 1.042zm-5.209-2.084H38.5v-6.25h-4.167v6.25zM24.958 51H2.042A1.042 1.042 0 011 49.958V27.042C1 26.467 1.467 26 2.042 26h22.916c.575 0 1.042.467 1.042 1.042v22.916c0 .575-.467 1.042-1.042 1.042zM3.083 48.917h20.834V28.083H3.083v20.834z"/><path d="M16.625 36.417h-6.25a1.042 1.042 0 01-1.042-1.042v-8.333c0-.575.467-1.042 1.042-1.042h6.25c.575 0 1.042.467 1.042 1.042v8.333c0 .575-.467 1.042-1.042 1.042zm-5.208-2.084h4.166v-6.25h-4.166v6.25z"/></g><defs><clipPath id="ba"><path d="M0 0h50v52H0z"/></clipPath></defs></svg><svg viewBox="0 0 24 24" id="location" xmlns="http://www.w3.org/2000/svg"><path d="M11.903 5.981a3 3 0 100 6 3 3 0 000-6zm0 4.5a1.5 1.5 0 110-3 1.5 1.5 0 010 3z"/><path d="M17.668 3.212A8.153 8.153 0 005.072 13.426l5.667 8.7a1.388 1.388 0 002.327 0l5.668-8.7a8.153 8.153 0 00-1.067-10.214zm-.191 9.395l-5.574 8.557-5.574-8.557a6.683 6.683 0 01.87-8.335 6.652 6.652 0 019.408 0 6.683 6.683 0 01.87 8.335z"/></svg><svg viewBox="0 0 43 43" id="map" xmlns="http://www.w3.org/2000/svg"><path d="M31.738 15.677a3.071 3.071 0 100 6.142 3.071 3.071 0 000-6.142zm0 4.607a1.538 1.538 0 01-1.536-1.536c0-.846.69-1.535 1.536-1.535.847 0 1.536.689 1.536 1.535 0 .847-.69 1.536-1.536 1.536zM10.366 7.999a2.559 2.559 0 100 5.12 2.559 2.559 0 000-5.12zm0 3.583a1.024 1.024 0 11.003-2.049 1.024 1.024 0 01-.003 2.05z"/><path d="M40.964 7.269l-10.262-1.1c-.56-.06-1.298-.09-2.036-.09s-1.476.03-2.036.09L16.37 7.27c-.183.02-.387.035-.601.048a6.688 6.688 0 00-5.53-2.901 6.69 6.69 0 00-4.885 2.109L2.036 6.17a1.946 1.946 0 00-.216-.012C.8 6.158 0 6.946 0 7.999v27.13c0 1.127.916 2.146 2.036 2.266l10.262 1.1c.56.06 1.297.09 2.035.09.739 0 1.476-.03 2.036-.09l10.262-1.1c.56-.06 1.297-.09 2.036-.09.738 0 1.475.03 2.035.09l10.262 1.1c.074.007.145.01.216.01 1.019 0 1.82-.787 1.82-1.84V9.534c0-1.127-.916-2.146-2.036-2.266zM13.566 37.035a15.152 15.152 0 01-1.104-.067L2.2 35.867c-.342-.037-.664-.396-.664-.74V7.999c0-.193.103-.305.284-.305l.053.003 2.454.263a6.37 6.37 0 00-.744 2.984c0 3.192 4.602 8.354 5.525 9.357l1.13 1.229 1.13-1.229a40.292 40.292 0 002.197-2.617v19.352zM10.239 19.26s-5.12-5.562-5.12-8.318c0-2.758 2.294-4.99 5.12-4.99s5.118 2.233 5.118 4.99c0 2.756-5.118 8.318-5.118 8.318zm17.66 16.521a18.63 18.63 0 00-1.431.086l-10.263 1.1c-.302.032-.687.054-1.103.067V15.5c.994-1.566 1.791-3.23 1.791-4.556a6.37 6.37 0 00-.377-2.146l.017-.001 10.262-1.1c.302-.032.687-.054 1.104-.067v4.992c-2.292 1.33-3.84 3.806-3.84 6.64 0 2.305 2.016 5.523 3.84 7.965v8.555zm-2.304-16.52a6.142 6.142 0 016.143-6.143 6.142 6.142 0 016.143 6.143c0 3.39-6.143 10.237-6.143 10.237s-6.143-6.846-6.143-10.237zm15.869 17.403c0 .194-.104.306-.284.306l-.053-.003-10.261-1.1a18.69 18.69 0 00-1.432-.086v-6.607a46.74 46.74 0 001.16 1.35l1.144 1.273 1.143-1.273c1.091-1.217 6.535-7.476 6.535-11.263 0-4.234-3.444-7.678-7.678-7.678a7.63 7.63 0 00-2.303.354V7.628c.416.014.801.036 1.104.068l10.261 1.1c.341.036.664.395.664.738v27.13z"/></svg><svg viewBox="0 0 50 50" id="moving-truck" xmlns="http://www.w3.org/2000/svg"><g clip-path="url(#ea)"><path d="M32.031 21.094a.78.78 0 00-.781.781v13.281a.78.78 0 101.563 0V21.875a.78.78 0 00-.782-.781zm17.188 19.531H46.89a.78.78 0 100 1.563h2.328a.78.78 0 100-1.563z"/><path d="M49.219 40.625a.78.78 0 00-.782.781v3.125a.78.78 0 101.563 0v-3.125a.78.78 0 00-.781-.781zM7.813 43.75H7.81l-5.469.016a.78.78 0 00.003 1.563h.002l5.469-.017a.78.78 0 00-.002-1.562zm40.625-7.031h-.782a.78.78 0 100 1.562h.782a.78.78 0 100-1.562z"/><path d="M48.438 31.25a.78.78 0 00-.782.781v9.375a.78.78 0 101.563 0v-9.375a.78.78 0 00-.782-.781zM43.75 21.094H32.031a.78.78 0 100 1.562H43.75a.78.78 0 100-1.562z"/><path d="M49.147 31.704l-4.688-10.156a.78.78 0 10-1.419.655l4.688 10.156a.781.781 0 001.419-.655zM2.344 40.625a.78.78 0 00-.781.781v3.175a.78.78 0 101.562 0v-3.175a.78.78 0 00-.781-.781z"/><path d="M.781 30.469A.78.78 0 000 31.25v10.156a.78.78 0 101.563 0V31.25a.78.78 0 00-.782-.781z"/><path d="M32.031 30.469H.781a.78.78 0 100 1.562h31.25a.78.78 0 100-1.562zM4.688 40.625H.78a.78.78 0 100 1.563h3.906a.78.78 0 100-1.563zm7.812-1.562a5.476 5.476 0 00-5.469 5.468A5.476 5.476 0 0012.5 50a5.476 5.476 0 005.469-5.469 5.476 5.476 0 00-5.469-5.468zm0 9.374a3.91 3.91 0 01-3.906-3.906 3.91 3.91 0 013.906-3.906 3.91 3.91 0 013.906 3.906 3.91 3.91 0 01-3.906 3.907z"/><path d="M12.5 42.188a2.347 2.347 0 00-2.344 2.343 2.347 2.347 0 002.344 2.344 2.347 2.347 0 002.344-2.344 2.347 2.347 0 00-2.344-2.343zm0 3.124a.782.782 0 110-1.563.782.782 0 010 1.563zm25.781-3.124a2.347 2.347 0 00-2.343 2.343 2.347 2.347 0 002.343 2.344 2.347 2.347 0 002.344-2.344 2.347 2.347 0 00-2.344-2.343zm0 3.124a.782.782 0 110-1.563.782.782 0 010 1.563z"/><path d="M38.281 39.063a5.476 5.476 0 00-5.468 5.468A5.476 5.476 0 0038.28 50a5.476 5.476 0 005.469-5.469 5.476 5.476 0 00-5.469-5.468zm0 9.374a3.91 3.91 0 01-3.906-3.906 3.91 3.91 0 013.906-3.906 3.91 3.91 0 013.907 3.906 3.91 3.91 0 01-3.907 3.907z"/><path d="M33.613 43.75H17.188a.78.78 0 100 1.563h16.425a.78.78 0 100-1.563zm15.606 0h-6.25a.78.78 0 100 1.563h6.25a.78.78 0 100-1.563zm-.781-12.5h-9.376a.78.78 0 100 1.563h9.376a.78.78 0 100-1.563z"/><path d="M39.063 31.25a2.347 2.347 0 01-2.344-2.344.78.78 0 10-1.563 0 3.91 3.91 0 003.907 3.907.78.78 0 100-1.563z"/><path d="M35.938 21.094a.78.78 0 00-.782.781v7.031a.78.78 0 101.563 0v-7.031a.78.78 0 00-.782-.781zm-1.563-9.375a.78.78 0 00-.781.781v3.125a.78.78 0 101.562 0V12.5a.78.78 0 00-.781-.781zM3.906 13.17a.78.78 0 00-.781.78v17.3a.78.78 0 101.563 0v-17.3a.78.78 0 00-.782-.78zm28.125 0a.78.78 0 00-.781.78v17.3a.78.78 0 101.563 0v-17.3a.78.78 0 00-.782-.78z"/><path d="M34.828 11.864L18.422.145a.782.782 0 00-.908 0L1.108 11.865a.78.78 0 10.908 1.27L17.97 1.741l15.95 11.394a.777.777 0 001.088-.181.78.78 0 00-.181-1.09z"/><path d="M34.828 14.99L18.422 3.27a.782.782 0 00-.908 0L1.108 14.99a.78.78 0 10.908 1.27L17.97 4.866 33.92 16.26a.777.777 0 001.088-.181.78.78 0 00-.181-1.09z"/><path d="M1.563 11.719a.78.78 0 00-.782.781v3.125a.78.78 0 101.563 0V12.5a.78.78 0 00-.781-.781zm18.75 9.375a.78.78 0 00-.782.781v9.375a.78.78 0 101.563 0v-9.375a.78.78 0 00-.782-.781z"/><path d="M20.313 21.094h-4.688a.78.78 0 100 1.562h4.688a.78.78 0 100-1.562z"/><path d="M15.625 21.094a.78.78 0 00-.781.781v9.375a.78.78 0 101.562 0v-9.375a.78.78 0 00-.781-.781zM12.5 17.188H7.031a.78.78 0 00-.781.78v5.47c0 .431.35.78.781.78H12.5a.78.78 0 00.781-.78v-5.47a.78.78 0 00-.781-.78zm-.781 5.468H7.813V18.75h3.906v3.906zm17.187-5.468h-5.468a.78.78 0 00-.782.78v5.47c0 .431.35.78.782.78h5.468a.78.78 0 00.782-.78v-5.47a.78.78 0 00-.782-.78zm-.781 5.468h-3.906V18.75h3.906v3.906zm-10.156-12.5a3.128 3.128 0 00-3.125 3.125 3.128 3.128 0 003.125 3.125 3.128 3.128 0 003.125-3.125 3.128 3.128 0 00-3.125-3.125zm0 4.688a1.564 1.564 0 111.562-1.563c0 .862-.7 1.563-1.562 1.563z"/></g><defs><clipPath id="ea"><path d="M0 0h50v50H0z"/></clipPath></defs></svg><svg viewBox="0 0 18 18" id="phone" xmlns="http://www.w3.org/2000/svg"><g clip-path="url(#fa)"><path d="M13.865 17.72c-.168 0-.336-.019-.5-.055a16.955 16.955 0 01-8.31-4.375 16.355 16.355 0 01-4.5-8.125 2.29 2.29 0 01.675-2.14l2-1.925A1 1 0 014 .83a1 1 0 01.725.435l2.5 3.695a.8.8 0 01-.055.95l-1.255 1.5A9.47 9.47 0 008 10.355a9.63 9.63 0 003.035 2.045l1.555-1.235a.82.82 0 01.93-.06l3.775 2.44A1 1 0 0117.5 15.1l-1.95 1.93a2.37 2.37 0 01-1.685.69zM3.92 1.82l-2 1.925a1.27 1.27 0 00-.375 1.2 15.35 15.35 0 004.205 7.63 15.95 15.95 0 007.82 4.115 1.375 1.375 0 001.25-.37l1.95-1.93-3.645-2.355-1.67 1.33a.5.5 0 01-.46.085 10.03 10.03 0 01-3.68-2.375 9.745 9.745 0 01-2.435-3.6A.5.5 0 015 7l1.35-1.615L3.92 1.82z"/></g><defs><clipPath id="fa"><path d="M0 0h18v18H0z"/></clipPath></defs></svg><svg viewBox="0 0 52 52" id="sofa" xmlns="http://www.w3.org/2000/svg"><path d="M49.081 31.613c0 1.775-1.432 3.219-3.192 3.219H6.11c-1.76 0-3.191-1.444-3.191-3.219V19.321c0-.57.46-1.034 1.025-1.034h2.124c.652 0 1.025.613 1.025 1.683v9.148c0 .465.94 1.152 1.786 1.152h34.242c.845 0 1.786-.687 1.786-1.152V19.97c0-1.07.373-1.683 1.025-1.683h2.124a1.03 1.03 0 011.025 1.034v12.292zm-3.456 7.81a.836.836 0 01-.651.291.826.826 0 01-.72-.425l-2.012-3.612h3.09l.48 3.074a.837.837 0 01-.187.671zm-37.879-.134a.835.835 0 01-.742.425.823.823 0 01-.629-.292.837.837 0 01-.188-.67l.482-3.075h3.089L7.746 39.29zm.186-23.934c0-1.119.903-2.03 2.013-2.03h7.46c1.11 0 2.013.911 2.013 2.03v9.674H7.932v-9.674zm14.338-2.03h7.46c1.11 0 2.013.911 2.013 2.03v9.674H20.257v-9.674c0-1.119.903-2.03 2.013-2.03zm12.325 0h7.46c1.11 0 2.013.911 2.013 2.03v9.675H32.582v-9.675c0-1.119.903-2.03 2.013-2.03zM7.932 25.875h36.136v3.122c-.134.139-.516.427-.947.427H8.879c-.431 0-.813-.288-.947-.427v-3.122zm40.124-8.433h-2.124a1.68 1.68 0 00-1.025.338v-2.425c0-1.586-1.28-2.875-2.852-2.875h-7.46c-1.028 0-1.93.55-2.433 1.376a2.848 2.848 0 00-2.432-1.376h-7.46c-1.027 0-1.93.55-2.432 1.376a2.848 2.848 0 00-2.433-1.376h-7.46c-1.572 0-2.852 1.29-2.852 2.875v2.425a1.68 1.68 0 00-1.025-.338H3.944A1.873 1.873 0 002.08 19.32v12.292c0 2.143 1.654 3.903 3.741 4.052L5.36 38.62c-.077.485.062.978.379 1.352a1.67 1.67 0 001.288.588c.601 0 1.158-.328 1.451-.857l2.243-4.026h30.56l2.242 4.026c.294.529.85.857 1.474.857.488 0 .95-.215 1.266-.588.317-.374.456-.867.38-1.352l-.463-2.955c2.087-.15 3.741-1.909 3.741-4.052V19.321a1.873 1.873 0 00-1.864-1.88z"/></svg><svg viewBox="0 0 50 50" id="warehouse" xmlns="http://www.w3.org/2000/svg"><g clip-path="url(#ha)"><path d="M49.588 14.282L25.422.116a.833.833 0 00-.824-.011L.43 13.438a.832.832 0 00-.431.73v35c0 .46.373.833.833.833H5c.46 0 .833-.373.833-.834V20.001h38.334v29.166c0 .461.372.834.833.834h4.167c.46 0 .833-.373.833-.834V15.001a.832.832 0 00-.412-.719zm-1.255 34.052h-2.5V19.167a.833.833 0 00-.833-.833H5a.834.834 0 00-.833.833v29.167h-2.5V14.659l23.32-12.867 23.346 13.686v32.856z"/><path d="M41.667 38.333h-10a.832.832 0 00-.834.833v10c0 .461.373.834.834.834h10c.46 0 .833-.373.833-.834v-10a.833.833 0 00-.833-.833zm-.834 10H32.5V40h8.333v8.333z"/><path d="M37.5 39.166v2.5h-1.667v-2.5h-1.666V42.5c0 .46.372.833.833.833h3.333a.833.833 0 00.834-.833v-3.334H37.5zm-5.833-.833h-10a.833.833 0 00-.834.833v10c0 .461.374.834.834.834h10c.46 0 .833-.373.833-.834v-10a.833.833 0 00-.833-.833zm-.834 10H22.5V40h8.333v8.333z"/><path d="M27.5 39.166v2.5h-1.667v-2.5h-1.666V42.5c0 .46.373.833.833.833h3.333a.833.833 0 00.834-.833v-3.334H27.5zm14.167-10.833h-10a.832.832 0 00-.834.833v10c0 .461.373.834.834.834h10c.46 0 .833-.373.833-.834v-10a.833.833 0 00-.833-.833zm-.834 10H32.5V30h8.333v8.333z"/><path d="M37.5 29.166v2.5h-1.667v-2.5h-1.666V32.5c0 .46.372.833.833.833h3.333a.833.833 0 00.834-.833v-3.334H37.5zM45 25H5v1.666h40V25zm0-3.334H5v1.667h40v-1.666zm-15.833-10h-8.334A.834.834 0 0020 12.5v3.333c0 .46.373.833.833.833h8.334c.46 0 .833-.373.833-.833V12.5a.833.833 0 00-.833-.834zM28.333 15h-6.666v-1.667h6.666V15z"/></g><defs><clipPath id="ha"><path d="M0 0h50v50H0z"/></clipPath></defs></svg></svg>