<?xml version="1.0" encoding="utf-8"?><svg viewBox="0 0 502.66 502.66" xmlns="http://www.w3.org/2000/svg" xmlns:xlink="http://www.w3.org/1999/xlink"><style>:root>svg{display:none}:root>svg:target{display:block}</style><svg viewBox="0 0 502.664 502.664" id="icon" xmlns="http://www.w3.org/2000/svg"><path d="M153.821 358.226L0 274.337v-46.463l153.821-83.414v54.574L46.636 250.523l107.185 53.431v54.272zm26.273 29.358L282.103 115.08h32.227L212.084 387.584h-31.99zm168.749-29.358v-54.272l107.164-52.999-107.164-52.59v-53.927l153.821 83.522v46.183l-153.821 84.083z"/></svg><svg viewBox="0 0 18 18" id="phone" xmlns="http://www.w3.org/2000/svg"><g clip-path="url(#ba)"><path d="M13.865 17.72c-.168 0-.336-.019-.5-.055a16.955 16.955 0 01-8.31-4.375 16.355 16.355 0 01-4.5-8.125 2.29 2.29 0 01.675-2.14l2-1.925A1 1 0 014 .83a1 1 0 01.725.435l2.5 3.695a.8.8 0 01-.055.95l-1.255 1.5A9.47 9.47 0 008 10.355a9.63 9.63 0 003.035 2.045l1.555-1.235a.82.82 0 01.93-.06l3.775 2.44A1 1 0 0117.5 15.1l-1.95 1.93a2.37 2.37 0 01-1.685.69zM3.92 1.82l-2 1.925a1.27 1.27 0 00-.375 1.2 15.35 15.35 0 004.205 7.63 15.95 15.95 0 007.82 4.115 1.375 1.375 0 001.25-.37l1.95-1.93-3.645-2.355-1.67 1.33a.5.5 0 01-.46.085 10.03 10.03 0 01-3.68-2.375 9.745 9.745 0 01-2.435-3.6A.5.5 0 015 7l1.35-1.615L3.92 1.82z"/></g><defs><clipPath id="ba"><path d="M0 0h18v18H0z"/></clipPath></defs></svg></svg>