<svg width="52" height="52" viewBox="0 0 52 52" fill="none" xmlns="http://www.w3.org/2000/svg">
<path d="M36.7164 30.9061L30.0992 27.4727L41.789 18.2439L48.4623 21.2798L36.7164 30.9061ZM41.2226 36.0241L29.6592 47.2421V28.4001L36.554 31.9772C36.7271 32.0674 36.9338 32.0449 37.0856 31.9199L41.2226 28.5298V36.0241ZM10.3736 28.0149L21.4551 34.1327C21.5285 34.174 21.6088 34.1938 21.689 34.1938C21.7985 34.1938 21.9079 34.1562 21.9974 34.0829L28.6631 28.6294V47.4827L10.3736 37.8329V28.0149ZM9.95157 18.5427L28.2265 27.67L21.636 33.0625L3.60532 23.1073L9.95157 18.5427ZM3.60288 14.2975L15.766 6.15954L21.7418 9.01221L9.86183 17.3541L3.60288 14.2975ZM22.2551 23.5414L10.9028 17.8708L22.2551 9.90014V23.5414ZM29.1023 26.9606L23.2512 24.0385V9.72066L40.7485 17.7666L29.1023 26.9606ZM28.4369 5.26599L46.6939 13.2235L41.6586 17.0543L23.7437 8.81676L28.4369 5.26599ZM49.916 21.0862C49.8937 20.9067 49.7818 20.7517 49.6218 20.6793L42.712 17.5354L47.9925 13.5176C48.1369 13.4077 48.2133 13.2254 48.1923 13.0403C48.1714 12.8552 48.0561 12.6964 47.8908 12.625L28.5639 4.20045C28.4029 4.12998 28.2185 4.15252 28.0775 4.2587L22.6959 8.33004L15.9338 5.10156C15.7797 5.02827 15.5992 5.04139 15.4558 5.13723L2.30814 13.9339C2.15592 14.0354 2.06935 14.2148 2.08104 14.4027C2.09317 14.5897 2.2021 14.756 2.36601 14.8359L8.91256 18.0325L2.36655 22.7409C2.22357 22.8433 2.14279 23.0152 2.15302 23.1956C2.16326 23.3751 2.26296 23.5367 2.41617 23.6213L9.37755 27.4652V38.1495C9.37755 38.344 9.48259 38.5226 9.64994 38.6109L29.0074 48.8235C29.079 48.8611 29.1563 48.8799 29.2332 48.8799C29.3567 48.8799 29.4788 48.832 29.5731 48.7408L42.0607 36.6264C42.1614 36.5287 42.2187 36.3915 42.2187 36.2487V27.7133L49.7308 21.5579C49.8679 21.4451 49.9379 21.2666 49.916 21.0862Z" fill="#3A98B2"/>
</svg>
